Coordinates
version=1
nRows=19
nColumns=24
inDegrees=yes

Units are S.I. units (second, meters, Newtons, ...)
If the header above contains a line with 'inDegrees', this indicates whether rotational values are in degrees (yes) or radians (no).

endheader
time	pelvis_tilt	pelvis_list	pelvis_rotation	pelvis_tx	pelvis_ty	pelvis_tz	hip_flexion_r	hip_adduction_r	hip_rotation_r	knee_angle_r	ankle_angle_r	subtalar_angle_r	mtp_angle_r	hip_flexion_l	hip_adduction_l	hip_rotation_l	knee_angle_l	ankle_angle_l	subtalar_angle_l	mtp_angle_l	lumbar_extension	lumbar_bending	lumbar_rotation
      0.00000000	     44.63478168	      2.35395083	     -0.78418840	      0.04765658	      0.55222047	     -0.02999069	     46.67534017	     -5.03059503	      4.55311374	   -111.13950213	     21.01640911	      0.00000000	      0.00000000	     46.82580980	     -2.57910332	     -4.31084380	   -111.56450796	     18.39313008	      0.00000000	      0.00000000	    -53.74562386	     -4.06788194	     -5.55844146
      0.01000000	     44.63467207	      2.35414963	     -0.78427870	      0.04766167	      0.55223515	     -0.02998144	     46.67527292	     -5.03051826	      4.55309762	   -111.13951910	     21.01639831	      0.00000000	      0.00000000	     46.82582873	     -2.57908222	     -4.31080376	   -111.56451053	     18.39312946	      0.00000000	      0.00000000	    -53.74571897	     -4.06786485	     -5.55841489
      0.02000000	     44.63172590	      2.35748648	     -0.78512499	      0.04768116	      0.55228462	     -0.02993803	     46.67392004	     -5.02925395	      4.55250799	   -111.13961743	     21.01622730	      0.00000000	      0.00000000	     46.82485886	     -2.57908189	     -4.31023661	   -111.56454901	     18.39301719	      0.00000000	      0.00000000	    -53.74672637	     -4.06769435	     -5.55809786
      0.03000000	     44.62262079	      2.36898354	     -0.78725456	      0.04773286	      0.55235448	     -0.02983670	     46.67014259	     -5.02426321	      4.55110031	   -111.13887295	     21.01580534	      0.00000000	      0.00000000	     46.82103283	     -2.57884834	     -4.30874295	   -111.56301547	     18.39255815	      0.00000000	      0.00000000	    -53.75074568	     -4.06718306	     -5.55674886
      0.04000000	     44.62307350	      2.36895934	     -0.78720640	      0.04774328	      0.55238000	     -0.02981832	     46.67042464	     -5.02408019	      4.55139198	   -111.13862652	     21.01585250	      0.00000000	      0.00000000	     46.82116669	     -2.57862992	     -4.30887947	   -111.56254049	     18.39255754	      0.00000000	      0.00000000	    -53.75109788	     -4.06717544	     -5.55662055
      0.05000000	     44.77258192	      2.52111484	     -0.88786872	      0.04749413	      0.55275071	     -0.02968696	     46.51718706	     -5.05837885	      4.76201266	   -111.12176177	     21.01814652	      0.00000000	      0.00000000	     46.57167525	     -2.51047470	     -4.48960308	   -111.45056274	     18.38369030	      0.00000000	      0.00000000	    -54.04398561	     -4.23677820	     -5.35855827
      0.06000000	     44.77263306	      2.52152223	     -0.88786026	      0.04749350	      0.55277288	     -0.02967647	     46.51720602	     -5.05820903	      4.76194856	   -111.12173119	     21.01817331	      0.00000000	      0.00000000	     46.57170435	     -2.51042028	     -4.48956205	   -111.45058403	     18.38372944	      0.00000000	      0.00000000	    -54.04406652	     -4.23670864	     -5.35850207
      0.07000000	     44.77020002	      2.52817211	     -0.88774058	      0.04749236	      0.55281642	     -0.02961690	     46.51587548	     -5.05541111	      4.76087540	   -111.12111980	     21.01816518	      0.00000000	      0.00000000	     46.57045586	     -2.51034883	     -4.48892713	   -111.45026689	     18.38382230	      0.00000000	      0.00000000	    -54.04528029	     -4.23581177	     -5.35789275
      0.08000000	     44.76579048	      2.54607914	     -0.88129251	      0.04744627	      0.55290983	     -0.02955832	     46.50719606	     -5.04212331	      4.78888249	   -111.10739054	     21.02199308	      0.00000000	      0.00000000	     46.55808328	     -2.49731168	     -4.49642360	   -111.41419162	     18.38377045	      0.00000000	      0.00000000	    -54.07330861	     -4.22245096	     -5.34408260
      0.09000000	     44.76573959	      2.54681591	     -0.88153113	      0.04743640	      0.55291466	     -0.02955890	     46.50712259	     -5.04200424	      4.78879099	   -111.10723834	     21.02200004	      0.00000000	      0.00000000	     46.55792240	     -2.49729653	     -4.49635595	   -111.41432466	     18.38376490	      0.00000000	      0.00000000	    -54.07350602	     -4.22232806	     -5.34397440
      0.10000000	     44.76641768	      2.55014966	     -0.88210870	      0.04740631	      0.55293553	     -0.02953723	     46.50709790	     -5.04117777	      4.78860796	   -111.10611762	     21.02202396	      0.00000000	      0.00000000	     46.55762184	     -2.49705755	     -4.49633751	   -111.41428629	     18.38373317	      0.00000000	      0.00000000	    -54.07453143	     -4.22154475	     -5.34344951
      0.11000000	     44.76823180	      2.55444341	     -0.88235892	      0.04736182	      0.55294031	     -0.02951366	     46.50721974	     -5.03989180	      4.78888508	   -111.10408021	     21.02203805	      0.00000000	      0.00000000	     46.55754504	     -2.49651930	     -4.49674831	   -111.41321237	     18.38363346	      0.00000000	      0.00000000	    -54.07623843	     -4.22014384	     -5.34260130
      0.12000000	     44.76851157	      2.55508044	     -0.88234199	      0.04733929	      0.55294156	     -0.02951384	     46.50721364	     -5.03970298	      4.78903485	   -111.10375270	     21.02203588	      0.00000000	      0.00000000	     46.55753503	     -2.49641029	     -4.49686979	   -111.41294593	     18.38360449	      0.00000000	      0.00000000	    -54.07656621	     -4.21985903	     -5.34243844
      0.13000000	     44.98298524	      2.71902221	     -0.89244101	      0.04692765	      0.55329220	     -0.02965172	     46.28180874	     -5.18887426	      4.93589141	   -111.08106714	     21.00580048	      0.00000000	      0.00000000	     46.27670421	     -2.33372183	     -4.63374249	   -111.30684040	     18.33757763	      0.00000000	      0.00000000	    -54.40161280	     -4.20816164	     -5.11056794
      0.14000000	     44.98353245	      2.71923524	     -0.89257428	      0.04688166	      0.55329377	     -0.02965102	     46.28195533	     -5.18884413	      4.93598822	   -111.08068904	     21.00592201	      0.00000000	      0.00000000	     46.27690319	     -2.33380051	     -4.63361458	   -111.30662697	     18.33771817	      0.00000000	      0.00000000	    -54.40164268	     -4.20813083	     -5.11046655
      0.15000000	     44.99251268	      2.72054830	     -0.89330382	      0.04675867	      0.55324405	     -0.02964674	     46.28477319	     -5.18823973	      4.93697763	   -111.07462712	     21.00664026	      0.00000000	      0.00000000	     46.28002651	     -2.33294917	     -4.63351267	   -111.30164327	     18.33854117	      0.00000000	      0.00000000	    -54.40276051	     -4.20692119	     -5.10926045
      0.16000000	     44.99863642	      2.72122659	     -0.89460365	      0.04664833	      0.55321946	     -0.02965801	     46.28652934	     -5.18846235	      4.93878000	   -111.06774768	     21.00681638	      0.00000000	      0.00000000	     46.28157076	     -2.33035421	     -4.63397406	   -111.29560453	     18.33877530	      0.00000000	      0.00000000	    -54.40533371	     -4.20422583	     -5.10725096
      0.17000000	     44.99890186	      2.72124633	     -0.89475877	      0.04659653	      0.55321155	     -0.02966101	     46.28663485	     -5.18864535	      4.93896791	   -111.06731985	     21.00680668	      0.00000000	      0.00000000	     46.28161341	     -2.33013246	     -4.63398536	   -111.29522131	     18.33877485	      0.00000000	      0.00000000	    -54.40553833	     -4.20392409	     -5.10707261
      0.18000000	     45.00912165	      2.72078901	     -0.89668806	      0.04646264	      0.55314815	     -0.02968581	     46.29105119	     -5.19121729	      4.94087791	   -111.06003284	     21.00646702	      0.00000000	      0.00000000	     46.28514571	     -2.32641802	     -4.63424139	   -111.28883083	     18.33866751	      0.00000000	      0.00000000	    -54.40806532	     -4.19963981	     -5.10496379
